<svg xmlns="http://www.w3.org/2000/svg" xml:space="preserve" id="apple" enable-background="new 0 0 128 128" version="1.1" viewBox="0 0 128 128">
  <path fill="#80BCDA" d="M77.9 11.3c-9.4-.9-19.4-.9-29.9 0-2.8 0-5.1 1.9-5.3 4.3C42.3 24.5 42 34 39.5 34.3h47c-2.9-1.3-3-10.2-3.3-18.7C83.1 13.3 80.7 11.3 77.9 11.3zM48.1 116.7c9.4.9 19.4.9 29.9 0 2.8 0 5.1-1.9 5.3-4.3.5-8.9.8-18.4 3.3-18.7h-47c2.9 1.3 3 10.2 3.3 18.7C42.9 114.7 45.3 116.7 48.1 116.7z"></path>
  <path fill="#D2D2D6" d="M91,86c0,4.4-3.6,8-8,8H43c-4.4,0-8-3.6-8-8V41c0-4.4,3.6-8,8-8h40c4.4,0,8,3.6,8,8V86z"></path>
  <path fill="#323235" d="M43,92.3c-3.3,0-6-2.7-6-6v-45c0-3.3,2.7-6,6-6h40c3.3,0,6,2.7,6,6v45c0,3.3-2.7,6-6,6H43z"></path>
  <rect width="40" height="45" x="43" y="41.3" fill="#57575E"></rect>
  <rect width="1.5" height="17.7" x="90" y="65.6" fill="#A6A6AD"></rect>
  <path fill="#A6A6AD" d="M91.1,57.3H91c1.1,0,2-0.9,2-2v-8c0-1.1-0.9-2-2-2h0.1c-1.2,0-2.1,0.9-2.1,2.1v7.8  C89,56.4,89.9,57.3,91.1,57.3z"></path>
  <path d="M90,55.2v-7.8c0-1.1-0.1-2.1,1.1-2.1c0,0,0,0-0.1,0h0.1c-1.2,0-2.1,0.9-2.1,2.1v7.8c0,1.2,0.9,2.1,2.1,2.1H91  c0,0,0,0,0.1,0C89.9,57.3,90,56.4,90,55.2z" opacity=".1"></path>
  <g>
    <rect width="2" height="1" x="91" y="50.8" fill="#57575E"></rect>
  </g>
  <g>
    <rect width="2" height="1" x="91" y="48.8" fill="#57575E"></rect>
  </g>
  <g>
    <rect width="2" height="1" x="91" y="46.8" fill="#57575E"></rect>
  </g>
  <g>
    <rect width="2" height="1" x="91" y="52.8" fill="#57575E"></rect>
  </g>
  <g>
    <rect width="2" height="1" x="91" y="54.8" fill="#57575E"></rect>
  </g>
  <path fill="#D2D2D6" d="M63.7,59.9C63.5,60,63.2,60,62.9,60c0-0.8,0.2-1.5,0.6-2c0.4-0.6,1-1,2-1.2c0,0.3,0,1-0.2,1.4  c-0.2,0.4-0.4,0.8-0.7,1.1C64.3,59.6,64,59.8,63.7,59.9z M67.3,66.6c-0.4-0.5-0.5-1.1-0.5-1.8c0-0.6,0.2-1.1,0.5-1.6  c0.2-0.3,0.5-0.6,0.9-0.9c-0.3-0.3-0.5-0.6-0.8-0.8c-0.5-0.3-1.1-0.5-1.7-0.5c-0.4,0-0.8,0.1-1.4,0.3c-0.5,0.2-0.9,0.3-1.1,0.3  c-0.2,0-0.5-0.1-1.1-0.2c-0.6-0.2-1-0.2-1.4-0.2c-0.9,0-1.7,0.4-2.3,1.1c-0.6,0.8-0.9,1.8-0.9,3c0,1.3,0.4,2.6,1.2,4  c0.8,1.4,1.6,2.1,2.4,2.1c0.3,0,0.6-0.1,1-0.3c0.4-0.2,0.8-0.3,1.1-0.3c0.3,0,0.7,0.1,1.2,0.3c0.5,0.2,0.9,0.3,1.1,0.3  c0.7,0,1.4-0.5,2-1.6c0.4-0.7,0.8-1.3,1-2C68,67.5,67.6,67.1,67.3,66.6z"></path>
</svg>
