<svg xmlns="http://www.w3.org/2000/svg" xml:space="preserve" id="apple" enable-background="new 0 0 128 128" version="1.1" viewBox="0 0 128 128">
  <path fill="#3E3E42" d="M77,87c0,7.7-6.3,14-14,14H34c-7.7,0-14-6.3-14-14V58c0-7.7,6.3-14,14-14h29c7.7,0,14,6.3,14,14V87z"></path>
  <path fill="#323235" d="M36.9 66.4c-.3.1-.6.1-1.1.2 0-1 .3-1.9.8-2.7.5-.7 1.4-1.3 2.6-1.5.1.5 0 1.3-.2 1.9-.2.5-.5 1-1 1.4C37.6 66 37.3 66.3 36.9 66.4zM41.5 75.2c-.5-.7-.7-1.5-.7-2.3 0-.8.2-1.5.7-2.2.2-.4.6-.8 1.2-1.2-.4-.4-.7-.8-1.1-1-.7-.5-1.4-.7-2.2-.7-.5 0-1.1.1-1.8.4-.7.2-1.2.4-1.5.4-.2 0-.7-.1-1.4-.3-.7-.2-1.3-.3-1.8-.3-1.2 0-2.2.5-3 1.5-.8 1-1.2 2.3-1.2 3.9 0 1.7.5 3.4 1.5 5.2 1 1.8 2.1 2.7 3.1 2.7.4 0 .8-.1 1.4-.4.6-.2 1.1-.3 1.5-.3.4 0 1 .1 1.6.3.6.2 1.1.3 1.5.3.9 0 1.8-.7 2.7-2 .6-.9 1-1.7 1.3-2.6C42.6 76.4 42 75.9 41.5 75.2zM52.1 79.2c.7 0 1.9-.1 1.9-.3v2.2c0 .1-.5.3-1 .3-.5.1-1.2.1-1.7.1-2.7 0-4.3-1.4-4.3-4.3V70h-1v-1.4l1.8-.9.8-2.7H50v3h4v2h-4v7.2c0 .7.3 1.2.6 1.5C51 79.1 51.5 79.2 52.1 79.2zM60.2 82l-5.1-14h3l2.7 7.8c.5 1.3.8 3.2.9 3.2h.1c.1 0 .4-1.6.9-3.2l2.7-7.8h3.1l-5.2 14H60.2z"></path>
  <path fill="#3E3E42" d="M108,31c0-2.2-1.8-4-4-4H88c-2.2,0-4,1.8-4,4v67c0,2.2,1.8,4,4,4h16c2.2,0,4-1.8,4-4V31z"></path>
  <circle cx="91.1" cy="61.5" r="3.7" fill="#323235"></circle>
  <circle cx="91.1" cy="70.8" r="3.7" fill="#323235"></circle>
  <circle cx="91.1" cy="52.2" r="3.7" fill="#323235"></circle>
  <circle cx="100.3" cy="52.2" r="3.7" fill="#323235"></circle>
  <path fill="#323235" d="M100.5,57.8c-2,0-3.5,1.7-3.5,3.7v9.3c0,2,1.5,3.7,3.5,3.7s3.5-1.7,3.5-3.7v-9.3  C104,59.5,102.5,57.8,100.5,57.8z"></path>
</svg>
