<svg xmlns="http://www.w3.org/2000/svg" xml:space="preserve" id="apple" enable-background="new 0 0 128 128" version="1.1" viewBox="0 0 128 128">
  <path fill="#D2D2D6" d="M90,104H38c-7.7,0-14-6.3-14-14V38c0-7.7,6.3-14,14-14h52c7.7,0,14,6.3,14,14v52C104,97.7,97.7,104,90,104z"></path>
  <path fill="#57575E" d="M65.3,55.5c-0.4,0.1-0.9,0.2-1.5,0.2c0-1.4,0.4-2.7,1.1-3.7c0.7-1,1.9-1.8,3.6-2.2c0.1,0.6-0.1,1.9-0.3,2.6  c-0.3,0.7-0.7,1.4-1.4,2C66.4,55,65.8,55.3,65.3,55.5z M71.8,67.8c-0.7-1-1-2-1-3.2c0-1.1,0.3-2.1,0.9-3c0.3-0.5,0.9-1.1,1.7-1.7  c-0.5-0.6-1-1.1-1.5-1.5c-0.9-0.6-1.9-0.9-3.1-0.9c-0.7,0-1.5,0.2-2.5,0.5c-1,0.3-1.6,0.5-2.1,0.5c-0.3,0-1-0.1-2-0.4  c-1-0.3-1.9-0.4-2.6-0.4c-1.7,0-3,0.7-4.1,2.1c-1.1,1.4-1.6,3.2-1.6,5.4c0,2.4,0.7,4.8,2.1,7.3c1.4,2.5,2.9,3.8,4.4,3.8  c0.5,0,1.1-0.2,1.9-0.5c0.8-0.3,1.5-0.5,2.1-0.5c0.6,0,1.4,0.2,2.2,0.5c0.9,0.3,1.6,0.5,2,0.5c1.2,0,2.5-1,3.7-2.9  c0.8-1.2,1.4-2.4,1.8-3.6C73.3,69.4,72.5,68.8,71.8,67.8z"></path>
</svg>
