<svg xmlns="http://www.w3.org/2000/svg" xml:space="preserve" id="apple" enable-background="new 0 0 128 128" version="1.1" viewBox="0 0 128 128">
  <polygon fill="#A6A6AD" points="75 103 53 103 55 92 73 92"></polygon>
  <path fill="#3E3E42" d="M107,95H21c-3.3,0-7-3.7-7-7V29c0-3.3,2.7-6,6-6h88c3.3,0,6,2.7,6,6v59C114,91.3,110.3,95,107,95z"></path>
  <polygon points="74.1 98 73 92 55 92 53.9 98" opacity=".1"></polygon>
  <path fill="#D2D2D6" d="M14,83.3V89c0,3.3,2.7,6,6,6h88c3.3,0,6-2.7,6-6v-5.7c0-0.2-0.1-0.3-0.3-0.3H14.3C14.1,83,14,83.1,14,83.3z"></path>
  <rect width="90" height="50" x="19" y="28" fill="#57575E"></rect>
  <circle cx="64" cy="89" r="3" fill="#A6A6AD"></circle>
  <path fill="#D2D2D6" d="M80,104c0,0.6-0.4,1-1,1H49c-0.6,0-1-0.4-1-1v-1c0-0.6,0.4-1,1-1h30c0.6,0,1,0.4,1,1V104z"></path>
</svg>
