<svg xmlns="http://www.w3.org/2000/svg" xml:space="preserve" id="apple" enable-background="new 0 0 128 128" version="1.1" viewBox="0 0 128 128">
  <path fill="#D2D2D6" d="M109,45H19c-2.2,0-4,1.8-4,4v53c0,2.2,1.8,4,4,4h90c2.2,0,4-1.8,4-4V49C113,46.8,111.2,45,109,45z"></path>
  <path fill="#3E3E42" d="M115.1,22H12.9c-2,0-3.4,1.9-2.9,3.8L14.2,42c0.5,1.8,2.1,3,3.9,3h91.8c1.8,0,3.4-1.2,3.9-3l4.2-16.3  C118.5,23.9,117.1,22,115.1,22z"></path>
  <polygon fill="#57575E" points="17.3 42 12.9 25 115.1 25 110.7 42"></polygon>
  <path d="M73,106H55v-0.3c0-1.1,0.9-1.7,2-1.7h14c1.1,0,2,0.6,2,1.7V106z" opacity=".05"></path>
  <path fill="#A6A6AD" d="M81,101c0,1.1-0.9,2-2,2H49c-1.1,0-2-0.9-2-2V85c0-1.1,0.9-2,2-2h30c1.1,0,2,0.9,2,2V101z"></path>
  <path d="M106,81H22c-1.1,0-2-0.9-2-2V52c0-1.1,0.9-2,2-2h84c1.1,0,2,0.9,2,2v27C108,80.1,107.1,81,106,81z" opacity=".1"></path>
  <rect width="72" height="3" x="28" y="45" fill="#3E3E42"></rect>
  <rect width="30" height="4" x="46" y="75" fill="#57575E"></rect>
  <rect width="4" height="4" x="40" y="75" fill="#57575E"></rect>
  <rect width="4" height="4" x="34" y="75" fill="#57575E"></rect>
  <rect width="4" height="4" x="84" y="75" fill="#57575E"></rect>
  <rect width="4" height="2" x="90" y="77" fill="#57575E"></rect>
  <rect width="4" height="4" x="96" y="75" fill="#57575E"></rect>
  <rect width="4" height="2" x="102" y="77" fill="#57575E"></rect>
  <rect width="4" height="4" x="78" y="75" fill="#57575E"></rect>
  <rect width="4" height="4" x="28" y="75" fill="#57575E"></rect>
  <rect width="4" height="4" x="47" y="70" fill="#57575E"></rect>
  <rect width="4" height="4" x="41" y="70" fill="#57575E"></rect>
  <rect width="4" height="4" x="35" y="70" fill="#57575E"></rect>
  <rect width="4" height="4" x="65" y="70" fill="#57575E"></rect>
  <rect width="4" height="4" x="59" y="70" fill="#57575E"></rect>
  <rect width="4" height="4" x="53" y="70" fill="#57575E"></rect>
  <rect width="4" height="4" x="83" y="70" fill="#57575E"></rect>
  <rect width="4" height="4" x="89" y="70" fill="#57575E"></rect>
  <rect width="4" height="4" x="77" y="70" fill="#57575E"></rect>
  <rect width="4" height="4" x="71" y="70" fill="#57575E"></rect>
  <rect width="11" height="4" x="95" y="70" fill="#57575E"></rect>
  <rect width="4" height="4" x="22" y="75" fill="#57575E"></rect>
  <rect width="11" height="4" x="22" y="70" fill="#57575E"></rect>
  <rect width="4" height="4" x="44" y="65" fill="#57575E"></rect>
  <rect width="4" height="4" x="38" y="65" fill="#57575E"></rect>
  <rect width="4" height="4" x="32" y="65" fill="#57575E"></rect>
  <rect width="4" height="4" x="62" y="65" fill="#57575E"></rect>
  <rect width="4" height="4" x="56" y="65" fill="#57575E"></rect>
  <rect width="4" height="4" x="50" y="65" fill="#57575E"></rect>
  <rect width="4" height="4" x="80" y="65" fill="#57575E"></rect>
  <rect width="4" height="4" x="86" y="65" fill="#57575E"></rect>
  <rect width="4" height="4" x="92" y="65" fill="#57575E"></rect>
  <rect width="4" height="4" x="74" y="65" fill="#57575E"></rect>
  <rect width="4" height="4" x="68" y="65" fill="#57575E"></rect>
  <rect width="8" height="4" x="98" y="65" fill="#57575E"></rect>
  <rect width="8" height="4" x="22" y="65" fill="#57575E"></rect>
  <rect width="4" height="4" x="42" y="60" fill="#57575E"></rect>
  <rect width="4" height="4" x="36" y="60" fill="#57575E"></rect>
  <rect width="4" height="4" x="30" y="60" fill="#57575E"></rect>
  <rect width="4" height="4" x="60" y="60" fill="#57575E"></rect>
  <rect width="4" height="4" x="54" y="60" fill="#57575E"></rect>
  <rect width="4" height="4" x="48" y="60" fill="#57575E"></rect>
  <rect width="4" height="4" x="78" y="60" fill="#57575E"></rect>
  <rect width="4" height="4" x="84" y="60" fill="#57575E"></rect>
  <rect width="4" height="4" x="90" y="60" fill="#57575E"></rect>
  <rect width="4" height="4" x="96" y="60" fill="#57575E"></rect>
  <rect width="4" height="4" x="72" y="60" fill="#57575E"></rect>
  <rect width="4" height="4" x="66" y="60" fill="#57575E"></rect>
  <rect width="4" height="4" x="102" y="60" fill="#57575E"></rect>
  <rect width="6" height="4" x="22" y="60" fill="#57575E"></rect>
  <rect width="4" height="2" x="42" y="52" fill="#57575E"></rect>
  <rect width="4" height="2" x="36" y="52" fill="#57575E"></rect>
  <rect width="4" height="2" x="30" y="52" fill="#57575E"></rect>
  <rect width="4" height="2" x="60" y="52" fill="#57575E"></rect>
  <rect width="4" height="2" x="54" y="52" fill="#57575E"></rect>
  <rect width="4" height="2" x="48" y="52" fill="#57575E"></rect>
  <rect width="4" height="2" x="78" y="52" fill="#57575E"></rect>
  <rect width="4" height="2" x="84" y="52" fill="#57575E"></rect>
  <rect width="4" height="2" x="90" y="52" fill="#57575E"></rect>
  <rect width="4" height="2" x="96" y="52" fill="#57575E"></rect>
  <rect width="4" height="2" x="72" y="52" fill="#57575E"></rect>
  <rect width="4" height="2" x="66" y="52" fill="#57575E"></rect>
  <rect width="4" height="2" x="102" y="52" fill="#57575E"></rect>
  <rect width="6" height="2" x="22" y="52" fill="#57575E"></rect>
  <rect width="4" height="4" x="44" y="55" fill="#57575E"></rect>
  <rect width="4" height="4" x="38" y="55" fill="#57575E"></rect>
  <rect width="4" height="4" x="32" y="55" fill="#57575E"></rect>
  <rect width="4" height="4" x="62" y="55" fill="#57575E"></rect>
  <rect width="4" height="4" x="56" y="55" fill="#57575E"></rect>
  <rect width="4" height="4" x="50" y="55" fill="#57575E"></rect>
  <rect width="4" height="4" x="80" y="55" fill="#57575E"></rect>
  <rect width="4" height="4" x="86" y="55" fill="#57575E"></rect>
  <rect width="4" height="4" x="92" y="55" fill="#57575E"></rect>
  <rect width="4" height="4" x="74" y="55" fill="#57575E"></rect>
  <rect width="4" height="4" x="68" y="55" fill="#57575E"></rect>
  <rect width="8" height="4" x="98" y="55" fill="#57575E"></rect>
  <rect width="8" height="4" x="22" y="55" fill="#57575E"></rect>
</svg>
