<svg xmlns="http://www.w3.org/2000/svg" xml:space="preserve" id="apple" enable-background="new 0 0 128 128" version="1.1" viewBox="0 0 128 128">
  <path fill="#3E3E42" d="M95,115H33c-3.3,0-6-2.7-6-6V19c0-3.3,2.7-6,6-6h62c3.3,0,6,2.7,6,6v90C101,112.3,98.3,115,95,115z"></path>
  <rect width="64" height="74" x="32" y="27" fill="#57575E"></rect>
  <circle cx="64" cy="108" r="4" fill="#323235"></circle>
  <circle cx="64" cy="108" r="3.5" opacity=".1"></circle>
  <path fill="#323235" d="M73,21H55c-0.6,0-1-0.4-1-1s0.4-1,1-1h18c0.6,0,1,0.4,1,1S73.6,21,73,21z"></path>
</svg>
