<?xml version="1.0" encoding="UTF-8"?>
<svg width="212px" height="127px" viewBox="0 0 212 127" version="1.1" xmlns="http://www.w3.org/2000/svg" xmlns:xlink="http://www.w3.org/1999/xlink">
    <g id="Page-1" stroke="none" stroke-width="1" fill="none" fill-rule="evenodd">
        <g id="Group-Copy" transform="translate(6.000000, 7.000000)" fill-rule="nonzero">
            <path d="M78.6092582,55.7435171 C40.0050925,42.0944434 37.1527778,1.8189894e-12 37.1527778,1.8189894e-12 C58.356018,0.890277756 79.0810175,1.32546293 99.9310169,1.31111108 C120.781016,1.32546293 141.505553,0.890277756 162.708793,1.8189894e-12 C162.708793,1.8189894e-12 159.856015,42.0944434 121.252313,55.7435171 C107.488424,60.6101837 92.3731468,60.6101837 78.6092582,55.7435171" id="path22-copy-28" fill="#D53A84" transform="translate(99.930785, 29.696759) scale(-1, 1) rotate(-180.000000) translate(-99.930785, -29.696759) "></path>
            <path d="M0,93.3403865 L19.418981,75.489924 C23.1870365,72.0264982 29.1310178,70.167239 35.2296287,70.5311278 C78.3236092,73.103813 121.640275,73.103813 164.733792,70.5311278 C170.832403,70.167239 176.776384,72.0264982 180.54444,75.489924 L199.963884,93.3403865 C133.393515,96.7501087 66.5699057,96.7501087 0,93.3403865" id="path26-copy-6" fill="#D53A84" transform="translate(99.981942, 83.191895) scale(-1, 1) rotate(-180.000000) translate(-99.981942, -83.191895) "></path>
            <path d="M199.325458,60.0694444 C133.308793,64.2930554 66.3615724,64.2930554 0.347222222,60.0694444 C1.61157404,64.1824073 6.77129614,67.2532406 13.0231478,67.6134257 C72.1555538,71.021759 127.518052,71.021759 186.649532,67.6134257 C192.901384,67.2532406 198.060643,64.1824073 199.325458,60.0694444" id="path30-copy-31" fill="#D53A84" transform="translate(99.836340, 65.119560) scale(-1, 1) rotate(-180.000000) translate(-99.836340, -65.119560) "></path>
            <path d="M139.912498,111.702314 C126.616665,112.273148 113.302776,112.558796 99.9898138,112.558796 C86.6768512,112.558796 73.3643515,112.273148 60.0694444,111.702777 C65.4624999,103.533333 77.5509255,98.2638889 90.8962955,98.2638889 L109.085184,98.2638889 C122.431017,98.2638889 134.519906,103.533333 139.912498,111.702314" id="path34-copy-31" fill="#D53A84" transform="translate(99.990971, 105.411342) scale(-1, 1) rotate(-180.000000) translate(-99.990971, -105.411342) "></path>
            <path d="M56.9444444,11.1111111 C57.3490741,11.1453704 57.7467592,11.1782407 58.1476852,11.2111111 L58.1347222,11.1111111 L58.2138889,11.2171296 C63.9374998,11.6916667 69.2768515,12.0810185 74.3629625,12.3828703 C74.3629625,12.3828703 73.7976848,16.9824073 76.8504625,22.4921293 C80.6972216,29.4337958 92.3407399,29.731481 94.7861102,21.2421294 L97.6898138,11.4425926 L102.398147,11.4425926 L105.301388,21.2421294 C107.472684,28.7467588 119.390739,29.4333329 123.237035,22.4921293 C126.289813,16.9824073 125.724535,12.3828703 125.724535,12.3828703 C129.607869,12.1523148 133.63935,11.8708333 137.874998,11.5393518 C139.193053,11.3768518 142.738424,11.1453704 143.143053,11.1111111 C141.106016,24.7699071 136.714813,31.0208328 136.714813,31.0208328 C136.685183,31.0712958 136.658331,31.1236106 136.628239,31.1740736 C136.462498,31.455555 136.286109,31.731018 136.112035,32.0083328 C135.991665,32.1995365 135.875461,32.393055 135.75185,32.5824069 C135.598609,32.8162032 135.437498,33.0449069 135.278239,33.2749994 C135.122683,33.5009254 134.96898,33.7287031 134.808331,33.9509254 C134.657405,34.1587957 134.500461,34.3629624 134.345831,34.568055 C134.165276,34.8064809 133.985183,35.0444438 133.799072,35.2787031 C133.647683,35.4694438 133.490739,35.6569438 133.335183,35.8449068 C133.135183,36.0856475 132.93472,36.3259253 132.728702,36.5624994 C132.572683,36.7402771 132.41435,36.9162031 132.255091,37.091666 C132.038887,37.3300919 131.821294,37.566666 131.599072,37.7990734 C131.437961,37.9685178 131.274998,38.1351845 131.110183,38.3009252 C130.880554,38.5333326 130.648146,38.7629623 130.412035,38.9898141 C130.244443,39.1499993 130.076387,39.3097215 129.906017,39.4675919 C129.66435,39.691203 129.419443,39.9115734 129.171757,40.1300919 C128.996757,40.2837956 128.821294,40.4379622 128.643517,40.5888882 C128.392591,40.8018511 128.137498,41.0101844 127.88148,41.2171289 C127.69722,41.3666659 127.513887,41.51574 127.326387,41.6611103 C127.06898,41.8624992 126.805554,42.0578696 126.542128,42.252777 C126.348146,42.3967585 126.155554,42.5421288 125.958332,42.6824066 C125.696295,42.8699066 125.428702,43.0499992 125.161572,43.2314807 C124.954628,43.3717585 124.750924,43.5138881 124.541665,43.6509251 C124.279165,43.8212955 124.011572,43.9851844 123.744906,44.1504621 C123.523146,44.2884251 123.304165,44.4296288 123.079165,44.5638881 C122.732869,44.7694436 122.373609,44.9597214 122.027313,45.1657399 C121.556017,45.4467584 121.057406,45.689814 120.563887,45.9398139 C120.412498,46.0166658 120.26435,46.0976843 120.112498,46.1722213 C119.789813,46.3314806 119.460184,46.4805547 119.132406,46.6324065 C118.93611,46.7226843 118.742591,46.8166658 118.544906,46.9041658 C118.221758,47.0476843 117.893517,47.1824065 117.565739,47.3180547 C117.356943,47.4050917 117.149998,47.4939806 116.93935,47.5777769 C116.613887,47.7069435 116.284258,47.8287028 115.954628,47.9499991 C115.735184,48.0310176 115.516665,48.113888 115.295369,48.1916657 C114.967591,48.3069435 114.637036,48.4152768 114.305554,48.5236102 C114.075462,48.5986102 113.845832,48.6731472 113.61435,48.7444435 C113.286573,48.8453694 112.95648,48.9412028 112.625462,49.0347213 C112.382406,49.1032398 112.13935,49.1708324 111.894906,49.2356472 C111.56898,49.3217583 111.241665,49.4041657 110.912499,49.4837953 C110.655554,49.5458324 110.396758,49.6046287 110.137499,49.662499 C109.816665,49.7342583 109.495369,49.8032398 109.172221,49.8680546 C108.895832,49.9231472 108.618054,49.9740731 108.340276,50.0245361 C108.027777,50.0810175 107.715277,50.1370361 107.400462,50.1870361 C107.101851,50.2347212 106.800925,50.2763879 106.500462,50.3185175 C106.201388,50.3597212 105.901851,50.4027768 105.600462,50.4388879 C105.269906,50.4782398 104.936573,50.5097212 104.604165,50.5421286 C104.327777,50.5689805 104.052314,50.599536 103.774073,50.6217583 C103.385184,50.6523138 102.993054,50.6731472 102.600925,50.6944435 C102.374536,50.7064805 102.149536,50.7240731 101.921758,50.7333323 C101.299073,50.7583323 100.672684,50.7722212 100.04398,50.7722212 C99.4148138,50.7722212 98.7888878,50.7583323 98.1657397,50.7333323 C97.9384249,50.7240731 97.7134249,50.7064805 97.4865731,50.6944435 C97.0949064,50.6731472 96.7027768,50.6523138 96.3134249,50.6217583 C96.0356472,50.599536 95.7601842,50.5689805 95.4833324,50.5421286 C95.150462,50.5097212 94.8180546,50.4782398 94.4874991,50.4388879 C94.1856472,50.4027768 93.8865732,50.3597212 93.5865732,50.3185175 C93.2865732,50.2763879 92.9861102,50.2347212 92.6870361,50.1870361 C92.3722213,50.1370361 92.0601843,50.0810175 91.7476843,50.0245361 C91.4694436,49.9740731 91.1921288,49.9231472 90.9157399,49.8680546 C90.5921288,49.8032398 90.2703695,49.7342583 89.9499992,49.662499 C89.690277,49.6046287 89.4324066,49.5458324 89.1745362,49.4837953 C88.8458325,49.4041657 88.5185177,49.3217583 88.1925918,49.2356472 C87.9481474,49.1708324 87.7050918,49.1032398 87.4624992,49.0347213 C87.1310178,48.9412028 86.8009252,48.8453694 86.4731474,48.7444435 C86.2416659,48.6731472 86.0120363,48.5986102 85.7819437,48.5236102 C85.4504623,48.4152768 85.1194437,48.3069435 84.7921289,48.1916657 C84.5712956,48.113888 84.3523141,48.0310176 84.1333327,47.9499991 C83.803703,47.8287028 83.4740734,47.7069435 83.1486105,47.5777769 C82.9379623,47.4939806 82.7305549,47.4050917 82.5217586,47.3180547 C82.1939809,47.1824065 81.8657401,47.0476843 81.542592,46.9041658 C81.3449068,46.8166658 81.1513883,46.7226843 80.955092,46.6324065 C80.6273142,46.4805547 80.2976846,46.3314806 79.9749994,46.1722213 C79.8236105,46.0981473 79.6768513,46.0171288 79.5263883,45.9412028 C79.0319439,45.6907399 78.5333328,45.4472214 78.0606476,45.1662029 C77.7138884,44.9597214 77.3550921,44.7699066 77.0087958,44.5638881 C76.7837958,44.4296288 76.5648143,44.2884251 76.3425921,44.1504621 C76.0759254,43.9851844 75.8083329,43.8212955 75.5462958,43.6509251 C75.3370366,43.5138881 75.1328699,43.3717585 74.9263884,43.2314807 C74.6592588,43.0499992 74.3916662,42.8699066 74.1291662,42.6824066 C73.931944,42.5421288 73.7393514,42.3967585 73.544907,42.252777 C73.281944,42.0578696 73.0189811,41.8624992 72.7611107,41.6611103 C72.5740737,41.51574 72.3902774,41.3666659 72.2064811,41.2171289 C71.9499996,41.0101844 71.694907,40.8018511 71.4439811,40.5888882 C71.2666663,40.4379622 71.0912034,40.2837956 70.9162034,40.1300919 C70.6685182,39.9115734 70.4231478,39.691203 70.1819441,39.4675919 C70.0115737,39.3097215 69.8425923,39.1499993 69.6754626,38.9898141 C69.4393515,38.7629623 69.2069441,38.5333326 68.9768516,38.3009252 C68.8129627,38.1351845 68.6495367,37.9685178 68.4888886,37.7990734 C68.2662034,37.566666 68.0486108,37.3300919 67.8328701,37.091666 C67.6736108,36.9162031 67.5143516,36.7402771 67.358796,36.5624994 C67.1527775,36.3259253 66.9518516,36.0856475 66.7527775,35.8449068 C66.596759,35.6569438 66.4402775,35.4694438 66.2884257,35.2787031 C66.1023146,35.0444438 65.922685,34.8064809 65.7421294,34.568055 C65.5870368,34.3629624 65.4300924,34.1587957 65.2796294,33.9509254 C65.1185183,33.7287031 64.9648146,33.5009254 64.8092591,33.2749994 C64.6504628,33.0449069 64.4888887,32.8162032 64.335648,32.5824069 C64.2120369,32.393055 64.0958332,32.1995365 63.9759258,32.0083328 C63.8018517,31.731018 63.6254628,31.455555 63.4587961,31.1740736 C63.4291665,31.1236106 63.4023147,31.0712958 63.373148,31.0208328 C62.6282406,29.7435181 61.9685184,28.4208329 61.3949073,27.057407 C61.373148,27.0060181 61.3495369,26.9555552 61.3277777,26.9037033 C61.1680554,26.5189811 61.0212962,26.1287033 60.8759258,25.7379626 C60.8759258,25.7379626 58.3166666,20.0111109 56.9444444,11.1111111" id="path76-copy-3" fill="#EFAFCD" transform="translate(100.043749, 30.941666) scale(-1, 1) rotate(-180.000000) translate(-100.043749, -30.941666) "></path>
            <path d="M100.232078,73.263994 C99.8982817,73.2575126 99.6228187,73.551494 99.6154113,73.9209385 L99.3056891,90.1811232 C99.2987446,90.5505677 99.5635594,90.8547343 99.8968928,90.8612158 C100.230689,90.8672343 100.506615,90.5737158 100.513559,90.2042714 L100.823282,73.9440866 C100.830226,73.5746422 100.565874,73.2704755 100.232078,73.263994" id="path80-copy-6" fill="#EFAFCD" transform="translate(100.064485, 82.062598) scale(-1, 1) rotate(-180.000000) translate(-100.064485, -82.062598) "></path>
            <path d="M84.1250943,73.6112242 C83.8524091,73.6056687 83.6014832,73.8052057 83.5283351,74.1070576 L79.8811129,89.3283535 C79.7963907,89.6829831 79.9885203,90.0445572 80.3116685,90.1366868 C80.6338907,90.2246497 80.9639833,90.0163164 81.0496314,89.6616868 L84.6973165,74.4403909 C84.7820387,74.0857613 84.5894462,73.7241872 84.266761,73.6320576 C84.2190758,73.6190946 84.1723165,73.6121502 84.1250943,73.6112242" id="path84-copy-6" fill="#EFAFCD" transform="translate(82.289200, 81.883952) scale(-1, 1) rotate(-180.000000) translate(-82.289200, -81.883952) "></path>
            <path d="M68.1640524,75.0107386 C67.8973858,74.9570349 67.6145154,75.1079609 67.4885895,75.3917572 L61.1723859,89.7135161 C61.0260897,90.0473123 61.1506267,90.4371272 61.4515526,90.5862012 C61.7529415,90.7301827 62.1154415,90.5843494 62.2631267,90.2505531 L68.5788672,75.9287942 C68.7256265,75.5959238 68.6006265,75.2051831 68.3001635,75.0570349 C68.2552561,75.0352757 68.2108117,75.0204609 68.1640524,75.0107386" id="path88-copy-6" fill="#EFAFCD" transform="translate(64.875733, 82.820761) scale(-1, 1) rotate(-180.000000) translate(-64.875733, -82.820761) "></path>
            <path d="M51.6148085,75.0273172 C51.3560122,74.9416691 51.0564752,75.0611135 50.8949011,75.3337987 L42.8120309,89.0689836 C42.624068,89.388891 42.698605,89.7976872 42.9791605,89.9833354 C43.260642,90.1638909 43.6388827,90.0587983 43.8282346,89.738891 L51.9111048,76.0037061 C52.0990677,75.6837987 52.0245307,75.2750024 51.7439751,75.0898172 C51.7023085,75.0625024 51.6597159,75.0421321 51.6148085,75.0273172" id="path92-copy-6" fill="#EFAFCD" transform="translate(47.361568, 82.535655) scale(-1, 1) rotate(-180.000000) translate(-47.361568, -82.535655) "></path>
            <path d="M33.322899,76.4436893 C33.0779916,76.3242449 32.7645656,76.4029486 32.5687323,76.6515597 L22.7289177,89.1885964 C22.500214,89.480726 22.5196585,89.8960038 22.7733622,90.1168371 C23.0279918,90.3335038 23.4173436,90.2793371 23.6469733,89.9876705 L33.4867878,77.4506338 C33.7154915,77.1585041 33.6960471,76.7432264 33.4428064,76.522393 C33.4053064,76.4904486 33.3654915,76.4645227 33.322899,76.4436893" id="path96-copy-6" fill="#EFAFCD" transform="translate(28.107876, 83.318971) scale(-1, 1) rotate(-180.000000) translate(-28.107876, -83.318971) "></path>
            <path d="M115.522752,73.6112242 C115.795437,73.6056687 116.046363,73.8052057 116.119048,74.1070576 L119.766733,89.3283535 C119.851455,89.6829831 119.658863,90.0445572 119.335715,90.1366868 C119.013955,90.2246497 118.6834,90.0163164 118.597752,89.6616868 L114.95053,74.4403909 C114.865807,74.0857613 115.0584,73.7241872 115.380622,73.6320576 C115.42877,73.6190946 115.47553,73.6121502 115.522752,73.6112242" id="path100-copy-6" fill="#EFAFCD" transform="translate(117.358629, 81.883952) scale(-1, 1) rotate(-180.000000) translate(-117.358629, -81.883952) "></path>
            <path d="M131.72609,75.0107386 C131.993219,74.9570349 132.275627,75.1079609 132.402016,75.3917572 L138.717756,89.7135161 C138.864515,90.0473123 138.739515,90.4371272 138.439052,90.5862012 C138.137664,90.7301827 137.775164,90.5843494 137.627478,90.2505531 L131.311275,75.9287942 C131.164979,75.5959238 131.289516,75.2051831 131.590441,75.0570349 C131.634886,75.0352757 131.679793,75.0204609 131.72609,75.0107386" id="path104-copy-6" fill="#EFAFCD" transform="translate(135.014622, 82.820761) scale(-1, 1) rotate(-180.000000) translate(-135.014622, -82.820761) "></path>
            <path d="M148.316775,75.0273172 C148.575571,74.9416691 148.875108,75.0611135 149.036219,75.3337987 L157.119552,89.0689836 C157.307515,89.388891 157.232978,89.7976872 156.95196,89.9833354 C156.670941,90.1638909 156.2927,90.0587983 156.103349,89.738891 L148.020016,76.0037061 C147.832516,75.6837987 147.907053,75.2750024 148.187608,75.0898172 C148.228812,75.0625024 148.271404,75.0421321 148.316775,75.0273172" id="path108-copy-6" fill="#EFAFCD" transform="translate(152.569946, 82.535655) scale(-1, 1) rotate(-180.000000) translate(-152.569946, -82.535655) "></path>
            <path d="M166.642854,76.4436893 C166.887761,76.3242449 167.200724,76.4029486 167.39702,76.6515597 L177.236372,89.1885964 C177.465076,89.480726 177.445631,89.8960038 177.192391,90.1168371 C176.937761,90.3335038 176.548409,90.2793371 176.318317,89.9876705 L166.478965,77.4506338 C166.250261,77.1585041 166.269706,76.7432264 166.522946,76.522393 C166.560446,76.4904486 166.600261,76.4645227 166.642854,76.4436893" id="path112-copy-6" fill="#EFAFCD" transform="translate(171.857668, 83.318971) scale(-1, 1) rotate(-180.000000) translate(-171.857668, -83.318971) "></path>
        </g>
    </g>
</svg>
